<svg width="77" height="37" viewBox="0 0 77 37" fill="none" xmlns="http://www.w3.org/2000/svg">
<path d="M0.0148438 2.2H7.81484V31H0.0148438V2.2ZM20.4211 13.32V8.12C21.3011 7.82667 22.1544 7.68 22.9811 7.68C24.8211 7.68 26.3411 8.25333 27.5411 9.4C28.7678 10.5467 29.3811 12.2667 29.3811 14.56V31H22.1811V15.72C22.1811 14.28 21.5944 13.48 20.4211 13.32ZM18.4211 11.08V31H11.2211V8H17.3411L18.4211 11.08ZM32.393 8H39.593V36L32.393 37V8ZM32.193 0.799998H39.793V6.24H32.193V0.799998ZM42.7836 8H49.9836V31H42.7836V8ZM42.5836 0.799998H50.1836V6.24H42.5836V0.799998ZM60.0542 11.64L52.3742 12.68V0.48H55.7742C58.6276 0.48 60.0542 1.81333 60.0542 4.48V11.64ZM70.3567 15.96L66.7167 21.72L65.1967 20.72C63.9434 19.8933 63.0367 19 62.4767 18.04C61.9167 17.08 61.6367 15.8267 61.6367 14.28C61.6367 12.0667 62.2901 10.4267 63.5967 9.36C64.9034 8.26667 67.0501 7.70667 70.0367 7.68C71.1567 7.68 72.1834 7.73333 73.1167 7.84C74.0767 7.92 74.8367 8.01333 75.3967 8.12C75.9834 8.22667 76.2767 8.28 76.2767 8.28L75.6767 13.6C75.6767 13.6 75.4767 13.5733 75.0767 13.52C74.6767 13.4667 74.1567 13.4133 73.5167 13.36C72.9034 13.28 72.2634 13.24 71.5967 13.24C70.6367 13.24 69.9434 13.32 69.5167 13.48C69.0901 13.64 68.8767 13.9467 68.8767 14.4C68.8767 14.6667 68.9567 14.8933 69.1167 15.08C69.2767 15.24 69.5301 15.4267 69.8767 15.64L70.3567 15.96ZM68.3967 22.8L72.0767 17.08L73.3967 17.92C74.6767 18.7467 75.5967 19.64 76.1567 20.6C76.7167 21.5333 76.9967 22.7467 76.9967 24.24C76.9967 26.6133 76.3167 28.4 74.9567 29.6C73.5967 30.7733 71.3701 31.3733 68.2767 31.4C66.9167 31.4 65.6634 31.32 64.5167 31.16C63.3967 31.0267 62.3701 30.84 61.4367 30.6L62.0367 25.16C62.0367 25.16 62.5301 25.24 63.5167 25.4C64.5034 25.5333 65.8101 25.6 67.4367 25.6C68.9034 25.6 69.6367 25.16 69.6367 24.28C69.6367 23.8267 69.3034 23.3867 68.6367 22.96L68.3967 22.8Z" fill="black"/>
</svg>
