<svg width="100" height="100" viewBox="0 0 100 100" fill="none" xmlns="http://www.w3.org/2000/svg">
<circle cx="50" cy="50" r="50" fill="black"/>
<path d="M22.0988 25.92H34.5788V72H22.0988V25.92ZM54.7488 43.712V35.392C56.1568 34.9227 57.5221 34.688 58.8448 34.688C61.7888 34.688 64.2208 35.6053 66.1408 37.44C68.1034 39.2747 69.0848 42.0267 69.0848 45.696V72H57.5648V47.552C57.5648 45.248 56.6261 43.968 54.7488 43.712ZM51.5488 40.128V72H40.0288V35.2H49.8208L51.5488 40.128ZM84.9118 41.024L72.6238 42.688V23.168H78.0638C82.6291 23.168 84.9118 25.3013 84.9118 29.568V41.024Z" fill="#F0ABFC"/>
</svg>
