<svg width="124" height="59" viewBox="0 0 124 59" fill="none" xmlns="http://www.w3.org/2000/svg">
  <path d="M0.22375 2.92H12.7038V49H0.22375V2.92ZM32.8738 20.712V12.392C34.2818 11.9227 35.6471 11.688 36.9698 11.688C39.9138 11.688 42.3458 12.6053 44.2658 14.44C46.2284 16.2747 47.2098 19.0267 47.2098 22.696V49H35.6898V24.552C35.6898 22.248 34.7511 20.968 32.8738 20.712ZM29.6738 17.128V49H18.1538V12.2H27.9458L29.6738 17.128ZM52.0288 12.2H63.5488V57L52.0288 58.6V12.2ZM51.7088 0.679996H63.8688V9.384H51.7088V0.679996ZM68.6538 12.2H80.1738V49H68.6538V12.2ZM68.3338 0.679996H80.4938V9.384H68.3338V0.679996ZM96.2868 18.024L83.9988 19.688V0.167999H89.4388C94.0041 0.167999 96.2868 2.30133 96.2868 6.568V18.024ZM112.771 24.936L106.947 34.152L104.515 32.552C102.509 31.2293 101.059 29.8 100.163 28.264C99.2668 26.728 98.8188 24.7227 98.8188 22.248C98.8188 18.7067 99.8641 16.0827 101.955 14.376C104.045 12.6267 107.48 11.7307 112.259 11.688C114.051 11.688 115.693 11.7733 117.187 11.944C118.723 12.072 119.939 12.2213 120.835 12.392C121.773 12.5627 122.243 12.648 122.243 12.648L121.283 21.16C121.283 21.16 120.963 21.1173 120.323 21.032C119.683 20.9467 118.851 20.8613 117.827 20.776C116.845 20.648 115.821 20.584 114.755 20.584C113.219 20.584 112.109 20.712 111.427 20.968C110.744 21.224 110.403 21.7147 110.403 22.44C110.403 22.8667 110.531 23.2293 110.787 23.528C111.043 23.784 111.448 24.0827 112.003 24.424L112.771 24.936ZM109.635 35.88L115.523 26.728L117.635 28.072C119.683 29.3947 121.155 30.824 122.051 32.36C122.947 33.8533 123.395 35.7947 123.395 38.184C123.395 41.9813 122.307 44.84 120.131 46.76C117.955 48.6373 114.392 49.5973 109.443 49.64C107.267 49.64 105.261 49.512 103.427 49.256C101.635 49.0427 99.9921 48.744 98.4988 48.36L99.4588 39.656C99.4588 39.656 100.248 39.784 101.827 40.04C103.405 40.2533 105.496 40.36 108.099 40.36C110.445 40.36 111.619 39.656 111.619 38.248C111.619 37.5227 111.085 36.8187 110.019 36.136L109.635 35.88Z" fill="currentColor"/>
</svg>
